<?xml version="1.0" standalone="no"?>
<!DOCTYPE svg PUBLIC "-//W3C//DTD SVG 20010904//EN"
 "http://www.w3.org/TR/2001/REC-SVG-20010904/DTD/svg10.dtd">
<svg version="1.0" xmlns="http://www.w3.org/2000/svg"
 width="1254.000000pt" height="1254.000000pt" viewBox="0 0 1254.000000 1254.000000"
 preserveAspectRatio="xMidYMid meet">

<g transform="translate(0.000000,1254.000000) scale(0.100000,-0.100000)"
fill="#000000" stroke="none">
<path d="M6180 12390 c-8 -5 -23 -10 -33 -10 -50 0 -132 -55 -211 -141 -26
-29 -52 -88 -146 -334 -51 -132 -100 -258 -110 -280 -10 -22 -33 -78 -50 -125
-18 -47 -41 -103 -50 -125 -10 -22 -48 -119 -85 -215 -37 -96 -73 -188 -80
-205 -7 -16 -20 -50 -30 -75 -10 -25 -26 -64 -36 -87 -11 -24 -19 -46 -19 -49
0 -3 -6 -20 -14 -37 -12 -28 -22 -53 -56 -142 -4 -11 -15 -36 -24 -57 -9 -20
-16 -39 -16 -42 0 -3 -8 -25 -19 -49 -10 -23 -38 -89 -61 -147 -43 -109 -46
-115 -75 -190 -10 -25 -26 -64 -37 -88 -10 -24 -32 -78 -49 -120 -16 -42 -34
-86 -38 -97 -5 -11 -15 -36 -21 -55 -12 -33 -19 -50 -56 -137 -34 -82 -31 -75
-69 -173 -10 -25 -26 -64 -36 -86 -10 -23 -21 -54 -25 -68 -3 -14 -10 -29 -15
-32 -5 -3 -9 -12 -9 -19 0 -8 -11 -38 -24 -67 -13 -29 -29 -69 -36 -88 -12
-33 -19 -51 -56 -137 -37 -90 -60 -146 -75 -183 -22 -54 -17 -185 8 -241 43
-95 130 -162 245 -188 66 -15 2906 -15 2980 0 151 31 238 114 272 262 16 70
11 117 -24 202 -21 51 -27 65 -95 235 -37 91 -76 184 -86 208 -11 24 -33 78
-50 120 -16 42 -34 87 -39 100 -6 12 -14 32 -20 45 -5 12 -23 57 -39 99 -17
42 -39 96 -49 120 -11 24 -27 63 -37 88 -10 25 -26 64 -36 87 -11 24 -19 46
-19 49 0 3 -7 22 -16 42 -9 21 -20 46 -25 57 -4 11 -22 56 -39 100 -17 44 -35
89 -39 100 -8 18 -28 65 -51 120 -4 11 -15 36 -24 57 -9 20 -16 39 -16 42 0 3
-8 25 -19 49 -10 23 -26 62 -36 87 -10 25 -23 59 -30 75 -7 17 -29 73 -50 125
-20 52 -45 114 -56 137 -10 24 -19 45 -19 48 0 4 -9 25 -19 48 -10 23 -34 80
-51 127 -35 92 -47 120 -79 192 -11 26 -21 51 -21 54 0 3 -7 22 -16 42 -9 21
-20 46 -25 57 -4 11 -22 56 -39 100 -17 44 -35 89 -39 100 -5 11 -16 36 -25
57 -9 20 -16 39 -16 42 0 3 -8 25 -19 49 -10 23 -26 62 -36 87 -10 25 -23 59
-30 75 -7 17 -30 74 -51 129 -33 83 -49 109 -100 162 -33 35 -74 68 -90 75
-104 42 -134 49 -194 49 -36 0 -72 -5 -80 -10z"/>
<path d="M395 8005 c-88 -22 -163 -64 -223 -123 -118 -118 -171 -308 -126
-448 44 -136 101 -213 229 -310 39 -29 81 -62 95 -73 14 -12 95 -75 180 -141
195 -152 349 -272 364 -285 6 -5 59 -46 116 -90 58 -43 110 -83 115 -87 6 -5
45 -35 89 -68 43 -33 91 -70 105 -82 14 -13 53 -44 86 -68 33 -25 62 -47 65
-51 3 -3 73 -57 155 -121 83 -64 159 -124 171 -135 11 -10 27 -22 35 -28 24
-15 138 -102 178 -136 20 -16 74 -59 121 -95 47 -36 101 -78 120 -94 19 -15
118 -92 220 -171 224 -173 344 -270 348 -281 2 -4 10 -8 17 -8 23 0 114 -100
152 -168 20 -36 44 -89 52 -117 18 -63 26 -238 12 -285 -6 -19 -22 -75 -36
-125 -23 -82 -65 -222 -85 -285 -5 -14 -11 -38 -15 -55 -6 -31 -71 -245 -85
-280 -4 -11 -20 -65 -35 -120 -35 -128 -55 -195 -66 -220 -4 -11 -24 -78 -44
-150 -20 -71 -45 -157 -56 -190 -12 -33 -41 -130 -65 -215 -24 -85 -48 -164
-53 -175 -5 -11 -17 -47 -26 -80 -9 -33 -25 -87 -35 -120 -10 -33 -25 -87 -35
-120 -9 -33 -21 -69 -25 -80 -5 -11 -15 -45 -24 -75 -38 -136 -68 -237 -75
-255 -5 -11 -15 -45 -24 -75 -9 -30 -31 -102 -48 -160 -17 -58 -35 -118 -39
-135 -5 -16 -16 -52 -25 -80 -9 -27 -23 -75 -31 -105 -18 -68 -73 -248 -84
-275 -5 -11 -11 -31 -14 -45 -4 -14 -20 -76 -36 -137 -43 -161 -40 -246 11
-413 48 -156 170 -293 327 -368 95 -45 134 -54 267 -59 108 -4 129 -1 238 34
90 29 134 58 616 403 264 190 511 366 548 393 38 26 91 64 119 85 29 20 240
172 469 337 230 165 436 314 459 330 508 365 953 678 983 691 96 42 120 47
213 47 98 0 167 -16 250 -55 14 -7 66 -42 115 -78 50 -36 108 -78 130 -93 22
-16 63 -45 91 -65 260 -187 794 -569 1214 -867 562 -399 854 -608 860 -615 3
-3 18 -14 35 -24 16 -11 34 -23 40 -28 5 -5 43 -32 84 -61 40 -28 112 -80 160
-114 47 -34 122 -87 166 -118 44 -31 98 -69 120 -85 68 -50 137 -80 251 -109
50 -13 254 -14 286 -2 13 5 43 15 68 22 134 38 283 164 371 314 39 65 68 200
69 312 0 106 -18 184 -105 463 -14 47 -33 110 -41 140 -8 30 -36 125 -63 210
-27 85 -57 182 -66 215 -9 33 -20 69 -25 80 -14 36 -79 249 -85 280 -4 17 -10
39 -15 50 -8 21 -54 170 -110 355 -17 58 -35 114 -40 125 -16 41 -60 192 -60
208 0 10 -4 25 -9 35 -13 24 -55 152 -81 247 -12 44 -35 118 -50 165 -27 80
-62 196 -96 320 -9 30 -19 64 -24 75 -4 11 -11 29 -15 40 -7 21 -83 285 -92
320 -2 11 -9 29 -14 40 -13 29 -99 328 -117 408 -22 97 -5 212 48 322 44 93
88 146 179 218 36 28 68 54 71 57 6 6 65 52 150 115 36 27 67 52 70 55 6 7
208 164 269 209 25 19 48 37 51 41 3 3 52 43 110 87 58 45 114 89 125 100 11
10 46 38 79 63 32 25 73 56 91 70 17 14 61 48 97 75 36 28 146 113 244 190
274 215 512 401 589 460 39 30 151 118 250 195 99 78 214 167 255 198 41 31
83 63 92 72 9 8 43 35 75 60 151 114 223 286 195 467 -30 194 -153 326 -350
379 -80 21 -3408 21 -3530 -1 -123 -21 -203 -63 -293 -154 -63 -64 -80 -88
-101 -146 -44 -120 -48 -139 -48 -231 0 -71 6 -109 31 -189 17 -55 35 -113 39
-130 4 -16 24 -77 43 -135 19 -58 47 -145 61 -195 15 -49 31 -98 37 -107 5
-10 9 -25 9 -33 0 -8 4 -23 9 -33 11 -20 32 -83 56 -167 18 -65 62 -198 75
-230 4 -11 20 -60 35 -110 14 -49 30 -99 35 -110 5 -11 16 -45 25 -75 9 -30
20 -64 25 -75 11 -28 19 -52 95 -290 37 -115 71 -219 75 -230 4 -11 27 -81 50
-155 23 -74 46 -144 50 -155 5 -11 16 -45 25 -75 9 -30 20 -64 25 -75 5 -11
21 -60 35 -110 15 -49 31 -99 35 -110 12 -32 76 -233 100 -315 23 -81 37 -124
51 -155 4 -11 20 -60 34 -110 14 -49 43 -146 65 -215 21 -69 51 -165 65 -215
15 -49 37 -121 50 -160 13 -38 33 -104 45 -145 33 -113 52 -173 61 -195 5 -11
27 -85 50 -165 22 -80 44 -154 49 -165 13 -33 27 -76 55 -170 14 -49 48 -160
75 -245 27 -85 56 -182 65 -215 9 -33 20 -69 25 -80 9 -21 78 -245 86 -280 9
-40 26 -100 34 -120 12 -29 78 -245 86 -280 8 -38 31 -114 55 -185 33 -99 69
-244 69 -280 0 -68 -41 -77 -135 -30 -98 50 -76 35 -608 409 -144 101 -311
218 -372 260 -60 43 -141 99 -180 126 -38 27 -71 52 -73 57 -2 4 -8 8 -12 8
-7 0 -297 201 -335 233 -5 4 -170 121 -365 259 -195 138 -366 260 -380 270
-14 11 -99 72 -190 136 -91 64 -170 121 -176 127 -6 5 -66 48 -133 95 -67 47
-163 117 -214 155 -51 39 -110 82 -132 96 -46 30 -210 109 -225 109 -6 0 -18
4 -28 9 -51 27 -222 55 -337 55 -80 1 -228 -17 -275 -33 -14 -5 -45 -14 -70
-22 -80 -22 -253 -111 -329 -168 -41 -31 -156 -114 -256 -186 -99 -71 -250
-179 -334 -240 -150 -108 -175 -125 -302 -214 -35 -25 -66 -48 -69 -51 -3 -4
-34 -27 -69 -51 -35 -24 -87 -60 -115 -81 -28 -20 -76 -53 -106 -74 -30 -21
-57 -40 -60 -44 -8 -10 -149 -110 -155 -110 -3 0 -11 -4 -18 -10 -41 -33 -86
-67 -202 -148 -71 -50 -134 -95 -140 -100 -19 -15 -179 -128 -235 -165 -30
-20 -82 -57 -115 -82 -33 -24 -85 -61 -115 -82 -30 -21 -178 -125 -330 -232
-317 -224 -394 -275 -470 -313 -90 -45 -138 -32 -127 34 10 60 36 162 72 283
41 135 102 342 116 395 6 19 14 44 18 55 13 32 30 86 51 166 11 41 31 110 45
154 15 44 46 150 71 235 24 85 48 164 53 175 5 11 21 63 36 115 38 136 76 262
85 285 8 19 24 74 71 240 12 44 26 85 30 90 3 6 10 26 14 45 4 19 11 41 15 50
5 8 13 35 20 60 18 72 91 303 101 322 5 10 9 23 9 30 0 15 49 177 60 198 4 9
11 31 14 50 4 19 11 44 16 55 4 11 15 47 25 80 9 33 25 85 35 115 10 30 26 82
36 115 9 33 21 64 26 70 4 5 8 16 8 25 0 9 25 92 56 186 31 93 66 205 79 249
13 44 36 118 53 165 17 47 38 112 47 145 10 33 31 98 47 145 30 86 50 149 95
295 13 44 28 89 33 100 5 11 17 45 26 75 26 89 85 273 94 295 13 32 35 103 64
200 15 50 31 99 36 110 5 11 21 61 36 110 14 50 48 158 75 240 26 83 76 238
110 345 34 107 69 218 78 245 22 70 21 259 -2 338 -44 144 -163 275 -302 332
-113 46 -72 45 -1883 44 -1333 -1 -1718 -4 -1757 -14z"/>
</g>
</svg>
